/* XPM */
static char *_f7ee598ea224f6dc0a5540cd194aa96Qde1fYYTMHjLBkuc[] = {
/* columns rows colors chars-per-pixel */
"43 32 160 2 ",
"   c #0D0604",
".  c #0F0806",
"X  c #0F0B0B",
"o  c #120605",
"O  c #190705",
"+  c #130906",
"@  c #1B0907",
"#  c #150B0B",
"$  c #1B0C0A",
"%  c #1E110E",
"&  c #160D10",
"*  c #1B0E12",
"=  c #1E1213",
"-  c #210A07",
";  c #220D0A",
":  c #280E0A",
">  c #24110C",
",  c #2B130D",
"<  c #32160E",
"1  c #33190F",
"2  c #241314",
"3  c #2A1514",
"4  c #261917",
"5  c #2D1A14",
"6  c #25151A",
"7  c #2A161A",
"8  c #251A1A",
"9  c #2D1A1A",
"0  c #391717",
"q  c #331B15",
"w  c #3C1D14",
"e  c #31161A",
"r  c #341C1C",
"t  c #3A1E1C",
"y  c #3E2016",
"u  c #34211C",
"i  c #3C221D",
"p  c #3F281F",
"a  c #2E1A21",
"s  c #341E20",
"d  c #3A1E20",
"f  c #352122",
"g  c #3B2422",
"h  c #3E2A23",
"j  c #401E1D",
"k  c #412216",
"l  c #42241D",
"z  c #48261D",
"x  c #43291E",
"c  c #4C2A1C",
"v  c #542D1F",
"b  c #432521",
"n  c #492721",
"m  c #442B24",
"M  c #4B2B22",
"N  c #442F29",
"B  c #4B2F2A",
"V  c #522C22",
"C  c #582E24",
"Z  c #4E3026",
"A  c #45322B",
"S  c #4C332B",
"D  c #543324",
"F  c #5C3425",
"G  c #5E3926",
"H  c #52352B",
"J  c #5B3629",
"K  c #553A2E",
"L  c #5B3A2D",
"P  c #4C3A32",
"I  c #523C33",
"U  c #5B3D32",
"Y  c #633022",
"T  c #633A27",
"R  c #653D2A",
"E  c #693E2A",
"W  c #643F32",
"Q  c #683D30",
"!  c #564137",
"~  c #5E4235",
"^  c #55423A",
"/  c #59443A",
"(  c #67422C",
")  c #6C422D",
"_  c #71422E",
"`  c #644332",
"'  c #6D4533",
"]  c #6D4935",
"[  c #63463A",
"{  c #6E4538",
"}  c #744433",
"|  c #784731",
" . c #764B33",
".. c #7B4B34",
"X. c #714F3C",
"o. c #7C4E3A",
"O. c #7F5037",
"+. c #75513D",
"@. c #78503C",
"#. c #5E4A40",
"$. c #644D43",
"%. c #6A4D42",
"&. c #724D42",
"*. c #645146",
"=. c #6E5244",
"-. c #6C5549",
";. c #6F5B4E",
":. c #7D5640",
">. c #71564A",
",. c #755A4D",
"<. c #7A5B4C",
"1. c #745E51",
"2. c #766054",
"3. c #7C6356",
"4. c #7D675A",
"5. c #814E36",
"6. c #814E3A",
"7. c #83523C",
"8. c #855741",
"9. c #825A45",
"0. c #8C5E47",
"q. c #845D49",
"w. c #866046",
"e. c #8B644B",
"r. c #94694F",
"t. c #826757",
"y. c #8F6950",
"u. c #896459",
"i. c #846B5D",
"p. c #8A6D5D",
"a. c #926D55",
"s. c #8E705C",
"d. c #A0735A",
"f. c #AC785D",
"g. c #856E61",
"h. c #8E7262",
"j. c #8D7768",
"k. c #8E796B",
"l. c #917463",
"z. c #997667",
"x. c #9A7965",
"c. c #957C6C",
"v. c #9A7E6C",
"b. c #A47D67",
"n. c #9C806B",
"m. c #9D8372",
"M. c #A3836F",
"N. c #A18673",
"B. c #A48876",
"V. c #A98C75",
"C. c #A68C7A",
"Z. c #A88E7B",
"A. c #D39771",
"S. c #AF9582",
"D. c #B09581",
"F. c #B59C87",
"G. c #B79E8A",
"H. c #BDA38D",
"J. c #C4A992",
"K. c #D2BBA5",
/* pixels */
"3 e 6 6 6 6 = 6 6 6 = = * * * % = 2 $ 2 2 3 2 3 5 9 3 7 3 3 3 3 > 2 3 3 2 2 2 3 3 3 3 ",
"e r 7 7 6 6 6 6 9 8 2 2 = 6 7 3 3 > 3 2 3 > 3 2 2 3 3 3 3 2 3 2 2 2 $ 2 > > = > % > > ",
"0 s 6 7 7 7 a a a 8 a a a 9 s r u q 5 5 q r q 5 5 9 5 5 3 7 3 3 9 9 9 5 7 3 2 7 9 9 7 ",
"9 a 6 6 7 e a 7 8 a a a a g P -.p.3.>.m r q t t r q r e 9 r e e 9 r e e 9 9 7 2 3 5 9 ",
"6 6 6 a a a 6 6 8 8 f f g S ^ [ l.d.<.v.N r r t t q r 0 r r e 9 9 9 e 9 5 3 3 2 2 7 6 ",
"a 6 6 6 7 a 2 6 = f h h H / *.2.| A.r.l.i.H t t t t t r r t i i d r r r 9 9 7 9 9 5 r ",
"6 6 6 6 9 9 6 X a f Z S / ;.2.*.Y f.0.t.N.=.B g r r r r e t i t d d r s s r s r r r t ",
"* 6 7 9 9 a = X = = 8 P #.2.-.2.E } 5.u.D.p.+.~ U H b i i r t i l g i r g i r s r u t ",
"6 7 9 a 9 e 6 & X & 8 A ! / ;.i.Q R d.h.J.x.<.U B H B M b b i l l l i i i d d d s d g ",
"7 e e e 9 9 9 = & = ^ / P A 4.k.1.q.m.Z.J.V.p.,.D b m b t i t l l l i t i t t d d d d ",
"9 t d t e r u u 4 4 u ^ #.P ! c.1.z.Z.G.H.M.-.H K U b t i i t i i i i d i b j g d t l ",
"g g g p p p p L M p 8 ^ / ! A 4.i.m.m.H.D.n.<.U b t d r r t t t t t t r r r r d g r i ",
"g g g h m m S Z u H ! p / ! ! 2.*.g.j.K.M.z.&.H b l l b l l t t l l l l j t g j d d t ",
"i g g h m S L y # u ( x P ! ! -.>.g.c.K.b.u.&.n l j b V n z z b b n n l b l l b l i t ",
"b g m m Z H L ; > $ 5 G p N ! / t.i.c.J.x.{ &.J V l l n z n b z b n V V V V V n z b z ",
"m Z Z S H L x > 1 1 % u p y h N 1.g.m.F.B.Q { Q F c M V C C V V C F F F F F F F T J Y ",
"K ( ] ] ` ` 5 , w y : + > u u S I g.m.C.v.] J ( T G G G G G T T E E E R ) _ | o.5.5.5.",
"` ] ' ' ' W ; , 1 y , $ # > , S U g.C.m.n.F F (  .| _ _ ) E ( E ) ) )  .......7.7.7.5.",
"` ] ] ' X.L ; < 1 k , , $ > 5 % f 3.m.C.c.V C (  . ...@.5.5.5...o...@.7.7.7.7.6.6.6.o.",
"S ! ~ ` ~ l $ , < k > > % + , , u %.c.N.c.L c T @.@.O.9.9.9.9.9.0.o.@.O.7.7.8.7.6.7.7.",
"5 8 9 9 2 % @ , : w : ; # + $ , 5 I i.B.c.*.k C ( x m m m H ! [ X.+.@.q.e.w.e.y.y.a.y.",
"% # # # X @ - 1 - k : @ $ + + $ 3 2 S 3.i.,.D v F c 7 3 5 5 u m A m m m S S H K H H K ",
"& & & # + @ : 1 - x , + % + o $ > % , [ >.3.R l c F Z % = 6 2 2 7 2 2 4 2 = 8 6 = 6 2 ",
"6 = * & + @ 1 1 $ k > $ , + + $ @ + $ 2 p m m i k H G D 5 2 # % # % 2 4 9 u u u f u q ",
"* * & & o O t , ; y ; $ $ + + + $ o + $ o     + 2 m Z D D 5 % # % & = 4 8 u 8 8 9 9 e ",
"$ & # # # ; k : - q - @ +   + . @ $ o o     o   . % 5 x c G D q $ # # = 6 = 6 8 6 % 3 ",
"* & # & @ > w : @ 1 - o + +   . @ @ o o   o       % p x c c V V r 7 2 * = = = = = = 3 ",
"% * # # + , y - @ , -   + + . . $ ; @ + o     o . . % p x u 5 p c n i u 7 2 2 = = 6 2 ",
"2 % & ; $ 1 1 @ @ : : o . . . . % , ; @ @ @ o o         % 4 u 5 i p p z q 2 2 2 = 2 2 ",
"e % ; $ @ , : @ - - @ o       . $ 1 , - @ @ @ o         .   . 5 q 1 1 i n e 2 9 r s r ",
"2 2 ; $ o @ O o @ O o           . 5 < , : $ $ .             . 5 F c w q q t t 0 t e e ",
": e ; @         o o o   .       . , < < : : ; . .         .   . , c k 5 1 0 n j j 0 0 "
};
